<svg width="149" height="111" viewBox="0 0 149 111" fill="none" xmlns="http://www.w3.org/2000/svg">
<path d="M93.2353 3.87398C105.658 -2.22358 148 3.27692 148 3.27692L148 89.8528C148 89.8528 109.605 84.5784 94.6765 89.8528C77.8897 95.7837 103.216 102.396 93.2353 106.573C81.7763 111.369 60.2751 110.909 51.4412 106.573C42.6072 102.237 65.8529 93.8409 48.5588 89.5967C31.2647 85.3526 1 90.1272 1 90.1272L1.00001 3.27692C1.00001 3.27692 35.3505 -1.19675 50 3.27692C65.853 8.1181 40.5453 15.8228 52.8824 20.32C65.2194 24.8173 83.1471 24.0337 93.2353 19.7895C103.324 15.5454 80.2647 10.2402 93.2353 3.87398Z" fill="#33379F" stroke="black"/>
</svg>
