<svg width="147" height="109" viewBox="0 0 147 109" fill="none" xmlns="http://www.w3.org/2000/svg">
<path d="M92.2353 2.87398C104.658 -3.22358 147 2.27692 147 2.27692L147 88.8528C147 88.8528 108.605 83.5784 93.6765 88.8528C76.8897 94.7837 102.216 101.396 92.2353 105.573C80.7763 110.369 59.2751 109.909 50.4412 105.573C41.6072 101.237 64.8529 92.8409 47.5588 88.5967C30.2647 84.3526 4.65335e-06 89.1272 4.65335e-06 89.1272L1.49879e-05 2.27692C1.49879e-05 2.27692 34.3505 -2.19675 49 2.27692C64.853 7.1181 39.5453 14.8228 51.8824 19.32C64.2194 23.8173 82.1471 23.0337 92.2353 18.7895C102.324 14.5454 79.2647 9.24025 92.2353 2.87398Z" fill="#EEEEEE"/>
</svg>
